PathFileType	4	(X/Y/Z)	D:\TRACE\spot_10-12-23\spot_arm_motion_3_3-v60.trc
DataRate	CameraRate	NumFrames	NumMarkers	Units	OrigDataRate	OrigDataStartFrame	OrigNumFrames
100.00	100.00	      17	9	mm	100.00	6126	      7000
Frame#	Time	front left toe			Front right toe			aft left toe			aft right toe			Arm			FL body			FR body			AL Body			AR Body			
		X1	Y1	Z1	X2	Y2	Z2	X3	Y3	Z3	X4	Y4	Z4	X5	Y5	Z5	X6	Y6	Z6	X7	Y7	Z7	X8	Y8	Z8	X9	Y9	Z9	

6126	61.250	-185.14110	23.82992	0.52208	308.87436	23.79678	22.33432	-195.78210	-8.26262	611.99170	287.30469	-14.59533	628.25336	30.91136	866.61603	-677.26587	-8.59433	555.90039	-43.29361	144.01089	562.16644	-40.23073	-29.56712	517.00116	839.62653	121.31494	517.03723	844.68677	
6127	61.260	-185.33337	23.86919	0.51258	308.76300	23.76292	22.37175	-195.92731	-8.29593	611.99951	287.03870	-14.62758	628.25543	31.09696	866.39868	-677.28229	-8.71796	555.88196	-43.27905	143.93924	562.07721	-40.27221	-29.64386	517.00275	839.60657	121.21059	517.00653	844.65717	
6128	61.270	-185.44269	23.87745	0.50647	308.59879	23.76671	22.43012	-196.12131	-8.31721	611.98584	286.93134	-14.61988	628.27997	30.96724	866.24707	-677.28271	-8.81229	555.90625	-43.33165	143.84795	562.05969	-40.27599	-29.89934	517.04913	839.56580	120.98665	516.99353	844.68079	
6129	61.280	-185.56262	23.87292	0.49246	308.41168	23.75589	22.46104	-196.33487	-8.34625	611.97797	286.79556	-14.62134	628.31085	30.97281	866.15063	-677.26154	-8.83743	555.83618	-43.38008	143.70769	562.00830	-40.29312	-29.96018	517.00238	839.54150	120.85224	516.94043	844.64917	
6130	61.290	-185.66243	23.89840	0.50335	308.24167	23.72954	22.48132	-196.52986	-8.37865	611.96094	286.77740	-14.66545	628.26904	30.98761	866.07898	-677.30811	-9.02959	555.90845	-43.36506	143.65167	562.03644	-40.28908	-30.26424	517.08191	839.25629	120.67461	516.89001	844.63647	
6131	61.300	-185.80127	23.91150	0.52062	308.01245	23.75352	22.50567	-196.62300	-8.41528	611.99103	286.56232	-14.68857	628.25690	30.88548	866.06842	-677.32581	-9.16485	555.94220	-43.40366	143.60455	562.05060	-40.31431	-30.54814	517.26355	839.05200	120.51156	516.86224	844.63251	
6132	61.310	-185.94588	23.92400	0.54119	307.69632	23.71786	22.54077	-196.68263	-8.46529	612.04840	286.15085	-14.68383	628.26434	30.75054	866.08887	-677.33044	-9.22566	555.92688	-43.40576	143.49065	562.02423	-40.31247	-30.40574	517.05280	839.20483	120.45904	516.88733	844.51196	
6133	61.320	-186.08696	23.89125	0.55593	307.53680	23.76608	22.60830	-196.88019	-8.50641	612.02124	285.89597	-14.71781	628.26141	30.71971	866.06500	-677.31921	-9.41045	555.96979	-43.46833	143.42062	561.97137	-40.30052	-30.41678	517.07788	839.23425	120.22977	516.84760	844.63525	
6134	61.330	-186.18060	23.83236	0.56912	307.25211	23.94003	22.71534	-197.01501	-8.51796	612.01135	285.67041	-14.76122	628.24957	30.41882	866.09161	-677.27295	-9.50133	555.97192	-43.47776	143.28680	561.97089	-40.31667	-30.49279	517.07159	839.22736	120.02199	516.88788	844.62415	
6135	61.340	-186.32982	23.80674	0.55934	307.06317	23.90707	22.69707	-197.19167	-8.49066	612.00842	285.55753	-14.75147	628.21344	30.32721	866.12390	-677.15741	-9.61042	555.99457	-43.52499	143.19473	561.97894	-40.27522	-30.46691	517.10150	839.24670	119.94485	516.89978	844.61023	
6136	61.350	-186.46764	23.80432	0.55814	306.87344	23.91091	22.67043	-197.32065	-8.49214	612.00244	285.43835	-14.76750	628.24530	30.13343	866.27917	-677.02246	-9.71203	556.03088	-43.56386	142.93741	562.08020	-40.35251	-30.58701	517.09595	839.22919	119.84222	516.94751	844.64154	
6137	61.360	-186.75702	23.88728	0.57535	306.75565	23.88931	22.63132	-197.41879	-8.49489	611.99707	285.37216	-14.76159	628.24298	29.93136	866.34589	-677.07587	-9.84552	556.08209	-43.59047	142.85886	562.07196	-40.33717	-30.53142	517.18500	839.30096	119.67455	516.94653	844.59796	
6138	61.370	-186.92979	23.80620	0.59839	306.33588	23.78566	22.33577	-197.60178	-8.44697	611.99622	285.33380	-14.59706	628.31531	29.68225	866.41553	-677.06897	-10.05171	556.11969	-43.63982	142.65575	562.13678	-40.32207	-30.63166	517.20557	839.27032	119.58697	517.01556	844.63049	
6139	61.380	-187.19464	23.84883	0.59732	306.16266	23.65128	22.18462	-197.87260	-8.40013	612.01666	285.12625	-14.63830	628.31732	29.40270	866.38348	-677.05151	-10.17396	556.08740	-43.63797	142.51898	562.15363	-40.38507	-30.62754	517.18384	839.28198	119.47622	517.08923	844.51361	
6140	61.390	-187.47572	23.85986	0.60214	306.25507	23.54606	22.21373	-198.10313	-8.34742	612.00391	284.90399	-14.68590	628.32526	29.14042	866.43732	-677.09509	-10.31736	556.17389	-43.69007	142.37782	562.19373	-40.40392	-30.82949	517.23694	839.22498	119.32374	517.00867	844.59253	
6141	61.400	-187.64575	23.87676	0.61844	306.44339	23.49496	22.30743	-198.33434	-8.35545	611.98425	284.83344	-14.74900	628.24194	28.83117	866.42468	-677.09296	-10.40264	556.23615	-43.68721	142.30566	562.20190	-40.38440	-30.97215	517.29236	839.16595	119.25367	516.99493	844.57990	
6142	61.410	-187.82512	23.96805	0.71279	306.52283	23.50756	22.31684	-198.58302	-8.33829	611.94299	284.66489	-14.76606	628.26648	28.60588	866.40887	-677.07922	-10.49559	556.28534	-43.72015	142.17763	562.20996	-40.36173	-31.13243	517.33228	839.17957	119.15274	517.05060	844.58618	
